<svg aria-hidden="true" style="position: absolute; width: 0; height: 0; overflow: hidden;" version="1.1" xmlns="http://www.w3.org/2000/svg" xmlns:xlink="http://www.w3.org/1999/xlink">
<defs>
<symbol id="moon" viewBox="0 0 32 32">
<path d="M14.649 3.75c0.252 0.587 0.053 1.27-0.475 1.629-2.12 1.442-3.507 3.869-3.507 6.62 0 4.418 3.582 8 8 8 3.867 0 7.096-2.745 7.839-6.393 0.128-0.627 0.683-1.075 1.323-1.067s1.184 0.469 1.297 1.098c0.137 0.768 0.209 1.557 0.209 2.362 0 7.364-5.969 13.333-13.333 13.333s-13.333-5.969-13.333-13.333c0-6.383 4.484-11.715 10.472-13.025 0.624-0.136 1.257 0.189 1.51 0.776zM8.682 8.239c-2.062 1.945-3.349 4.703-3.349 7.761 0 5.891 4.776 10.667 10.667 10.667 4.568 0 8.465-2.871 9.985-6.907-1.91 1.802-4.485 2.907-7.319 2.907-5.891 0-10.667-4.776-10.667-10.667 0-1.324 0.241-2.591 0.682-3.761z"></path>
</symbol>
<symbol id="sun" viewBox="0 0 32 32">
<path d="M17.909 10.079c-0.505-0.135-1.018-0.236-1.537-0.302-0.236-0.035-0.471-0.071-0.705-0.113l-0.010-0.002h-0.010c-3.411 0.058-6.070 2.376-6.464 5.64-0.339 2.801 0.858 4.922 3.284 5.82 1.112 0.423 2.291 0.645 3.481 0.654 0.416 0 0.831-0.029 1.242-0.088 1.571-0.226 2.762-0.987 3.54-2.263 0.438-0.708 0.776-1.472 1.005-2.271 0.866-3.143-0.78-6.184-3.828-7.075zM19.118 18.902c-0.749 1.005-1.838 1.472-3.33 1.425-0.213-0.032-0.428-0.060-0.642-0.088-0.461-0.061-0.937-0.123-1.396-0.22-2.155-0.454-3.006-1.638-2.937-4.086 0.041-1.453 0.584-2.662 1.571-3.496 1.121-0.948 2.775-1.38 4.425-1.155 1.945 0.265 3.219 1.72 3.408 3.89 0.117 1.337-0.275 2.669-1.099 3.731z"></path>
<path d="M8.018 22.176c-0.163-0.145-0.643-0.014-0.819 0.143-1.114 0.993-2.263 2.058-3.417 3.165-0.155 0.165-0.28 0.354-0.371 0.561-0.029 0.058-0.054 0.11-0.077 0.148l-0.012 0.019-0.002 0.023c-0.036 0.434 0.039 0.723 0.226 0.882 0.115 0.091 0.259 0.138 0.406 0.132 0.106-0.002 0.211-0.016 0.314-0.043 0.181-0.029 0.351-0.105 0.493-0.221 1.233-1.23 2.322-2.335 3.331-3.38 0.158-0.165 0.245-0.385 0.242-0.612-0.026-0.269-0.101-0.63-0.312-0.818z"></path>
<path d="M16.104 24.102c-0.070-0.046-0.151-0.076-0.234-0.087s-0.169-0.003-0.249 0.024c-0.274 0.077-0.543 0.488-0.583 0.776-0.085 0.613-0.121 1.242-0.157 1.85-0.014 0.236-0.027 0.472-0.044 0.708l-0.002 0.101 0.054 0.003c-0.001 0.149-0.004 0.298-0.007 0.447-0.016 0.413-0.009 0.826 0.019 1.239 0.005 0.17 0.043 0.336 0.114 0.491s0.172 0.293 0.298 0.407c0.135 0.109 0.304 0.168 0.478 0.167 0.040 0 0.079-0.003 0.118-0.009 0.555-0.078 0.831-0.465 0.799-1.118-0.073-1.455-0.168-2.91-0.283-4.327-0.001-0.129-0.031-0.255-0.087-0.371s-0.136-0.219-0.235-0.301z"></path>
<path d="M25.221 24.466c-0.747-0.827-1.519-1.683-2.296-2.509-0.122-0.112-0.267-0.195-0.425-0.243-0.047-0.018-0.090-0.034-0.123-0.051l-0.023-0.012-0.026 0.001c-0.147 0.001-0.29 0.041-0.416 0.117s-0.227 0.185-0.295 0.314c-0.062 0.139-0.085 0.292-0.066 0.443s0.078 0.294 0.173 0.413c0.574 0.806 1.209 1.585 1.825 2.34 0.204 0.25 0.409 0.502 0.612 0.754 0.093 0.13 0.23 0.222 0.387 0.259 0.061 0.005 0.128 0.014 0.197 0.022 0.137 0.020 0.275 0.032 0.413 0.035 0.068 0.008 0.137 0.001 0.203-0.020s0.126-0.055 0.178-0.1c0.168-0.188 0.182-0.49 0.195-0.781 0.004-0.086 0.008-0.171 0.016-0.25-0.003-0.063-0.019-0.125-0.047-0.182s-0.067-0.108-0.115-0.149l-0.365-0.403z"></path>
<path d="M6.395 16.419c0.062-0.080 0.106-0.171 0.13-0.269s0.028-0.199 0.011-0.298c-0.077-0.653-0.652-0.646-1.068-0.641h-0.032c-0.43 0.005-0.857 0.036-1.351 0.072-0.225 0.017-0.464 0.034-0.721 0.050-0.165 0-0.344-0.004-0.533-0.007-0.581-0.022-1.163-0.010-1.743 0.036-0.309 0.030-0.791 0.377-0.842 0.676-0.016 0.069-0.017 0.14-0.003 0.209s0.043 0.134 0.085 0.191c0.159 0.202 0.476 0.239 0.761 0.258 0.242 0.016 0.483 0.041 0.725 0.065 0.408 0.041 0.83 0.083 1.248 0.086h0.118c0.708 0 1.49-0.035 2.447-0.109 0.143 0.001 0.285-0.026 0.417-0.081s0.252-0.136 0.351-0.238z"></path>
<path d="M15.024 2.628c0.003 0.842 0.019 1.698 0.034 2.524l0.016 0.895c0 0.036-0.003 0.075-0.006 0.114-0.022 0.11-0.007 0.225 0.043 0.325 0.045 0.069 0.090 0.145 0.135 0.223 0.164 0.279 0.333 0.568 0.588 0.647 0.071 0.023 0.145 0.035 0.22 0.035 0.104 0 0.206-0.027 0.295-0.078 0.273-0.156 0.403-0.504 0.464-0.768 0.059-0.294 0.094-0.593 0.104-0.893 0.006-0.107 0.013-0.213 0.021-0.319l0.126-0.039-0.019-0.089c-0.056-0.26-0.11-0.521-0.163-0.782-0.14-0.685-0.284-1.393-0.488-2.073-0.075-0.172-0.192-0.322-0.341-0.437s-0.324-0.19-0.51-0.218c-0.067-0.004-0.135 0.006-0.199 0.028s-0.122 0.057-0.173 0.102c-0.165 0.167-0.157 0.442-0.15 0.684 0.001 0.042 0.002 0.082 0.002 0.119z"></path>
<path d="M22.17 9.925c0.256 0.001 0.509-0.055 0.741-0.163s0.437-0.266 0.6-0.463c0.791-0.833 1.566-1.707 2.315-2.552l0.52-0.586c0.149-0.152 0.262-0.335 0.329-0.537 0.031-0.111 0.084-0.534-0.095-0.626-0.216-0.086-0.455-0.096-0.677-0.027-0.134 0.053-0.252 0.141-0.339 0.256-0.026 0.028-0.052 0.056-0.077 0.081-0.263 0.261-0.526 0.52-0.79 0.779-0.754 0.741-1.533 1.508-2.272 2.289-0.217 0.254-0.399 0.537-0.541 0.84-0.086 0.162-0.175 0.33-0.282 0.508l-0.072 0.12 0.138 0.027c0.165 0.034 0.334 0.052 0.503 0.053z"></path>
<path d="M31.276 15.246c-0.275-0.076-0.557-0.118-0.842-0.123-0.995 0.029-2.005 0.086-2.982 0.142-0.355 0.020-0.71 0.040-1.064 0.060-0.024 0.001-0.050 0-0.076 0-0.096-0.014-0.194 0.008-0.274 0.062-0.052 0.047-0.111 0.094-0.171 0.142-0.21 0.167-0.427 0.341-0.461 0.563-0.015 0.070-0.015 0.143 0.002 0.214s0.049 0.135 0.096 0.191c0.087 0.079 0.191 0.139 0.303 0.176s0.231 0.049 0.349 0.036h0.026c0.389-0.005 0.777-0.005 1.166-0.006 0.882-0.001 1.794-0.003 2.689-0.056 0.621-0.037 1.317-0.204 1.775-1.161l0.056-0.117-0.128-0.023c-0.165-0.030-0.318-0.066-0.462-0.099z"></path>
<path d="M9.185 10.83l0.114 0.066 0.033-0.127c0.254-0.988 0.242-1.237-0.459-1.876-0.87-0.792-1.835-1.608-2.949-2.496-0.176-0.105-0.381-0.154-0.586-0.139-0.087-0.002-0.174-0.008-0.26-0.019l-0.119-0.018 0.004 0.12c0.001 0.085-0.003 0.171-0.012 0.256-0.018 0.216-0.036 0.439 0.082 0.578 0.963 1.136 2.304 2.579 4.153 3.656z"></path>
</symbol>
<symbol id="stone" viewBox="0 0 32 32">
<path d="M29.202 11.903c-0.378-1.864-1.633-3.338-3.628-4.261-2.273-1.052-5.46-1.385-9.473-0.991-6.214 0.61-10.239 2.548-11.963 5.761-0.907 1.69-1.146 3.746-0.693 5.946 0.316 1.533 0.858 2.629 0.952 2.81 0.084 0.208 0.633 1.495 1.849 2.788 1.205 1.282 3.317 2.811 6.539 2.811 3.335 0 4.357-1.121 5.539-2.419 0.995-1.092 2.122-2.329 5.078-3.251 1.754-0.547 3.409-1.87 4.541-3.627 1.154-1.792 1.613-3.821 1.259-5.566zM23.12 20.191c-3.201 0.999-4.474 2.396-5.496 3.518-1.116 1.224-1.922 2.109-4.838 2.109-2.301 0-4.26-0.836-5.823-2.486-1.183-1.248-1.685-2.52-1.69-2.533-0.007-0.017-0.015-0.035-0.023-0.051-0.022-0.042-2.215-4.278-0.271-7.894 1.567-2.913 5.34-4.682 11.216-5.259 6.958-0.683 11.36 0.956 12.078 4.497 0.636 3.138-1.868 7.074-5.153 8.099z"></path>
<path d="M27.466 8.878c-0.173-0.197-0.472-0.216-0.669-0.044-0.017 0.015-1.698 1.474-3.601 1.922-2.188 0.515-3.815 2.615-3.883 2.704-0.159 0.208-0.119 0.505 0.088 0.665 0.086 0.066 0.187 0.098 0.288 0.098 0.142 0 0.283-0.064 0.377-0.186 0.015-0.019 1.493-1.921 3.347-2.357 2.139-0.503 3.935-2.067 4.010-2.133 0.197-0.173 0.216-0.472 0.043-0.669z"></path>
<path d="M22.985 11.277c-0.085-0.192-0.283-0.3-0.48-0.28-0.258-0.014-1.698-0.225-2.982-0.428-0.258-0.041-0.502 0.136-0.543 0.394s0.136 0.502 0.394 0.543c2.183 0.345 2.884 0.436 3.16 0.436 0.122 0 0.161-0.018 0.209-0.038 0.239-0.106 0.348-0.386 0.242-0.626z"></path>
<path d="M16.395 19.596c-0.031-0.26-0.267-0.446-0.527-0.415-1.371 0.163-2.381 0.562-3.002 1.187-0.462 0.464-0.555 0.899-0.573 1.042-0.024 0.119-0.257 1.105-1.306 1.303-1.653 0.313-2.684 2.252-2.727 2.335-0.121 0.232-0.032 0.519 0.201 0.64 0.070 0.037 0.145 0.054 0.219 0.054 0.171 0 0.336-0.093 0.421-0.255 0.234-0.448 1.062-1.653 2.063-1.842 1.75-0.331 2.054-2.013 2.066-2.084 0.004-0.021 0.004-0.018 0.005-0.032 0.021-0.095 0.302-1.115 2.746-1.405 0.26-0.031 0.446-0.267 0.415-0.527z"></path>
<path d="M14.602 23.628c-0.074-0.251-0.337-0.395-0.589-0.322-1.85 0.543-3.007 2.559-3.055 2.645-0.129 0.228-0.048 0.517 0.18 0.646 0.074 0.042 0.154 0.061 0.233 0.061 0.166 0 0.326-0.087 0.414-0.241 0.010-0.018 1.011-1.765 2.496-2.201 0.251-0.074 0.395-0.337 0.322-0.589z"></path>
<path d="M9.415 15.564c-0.019-0.261-0.246-0.458-0.507-0.439-1.196 0.085-1.336-0.063-2.005-0.774-0.132-0.14-0.281-0.298-0.457-0.474-1.219-1.219-2.148-1.116-2.25-1.1-0.259 0.040-0.436 0.283-0.396 0.541s0.283 0.436 0.541 0.396c0.005-0.001 0.574-0.027 1.434 0.834 0.166 0.166 0.31 0.319 0.437 0.454 0.683 0.725 1.081 1.090 2.245 1.090 0.158 0 0.33-0.007 0.519-0.020 0.261-0.019 0.458-0.246 0.439-0.507z"></path>
<path d="M13.341 10.573c-0.325-0.182-0.866-0.275-1.599 0.312-0.326 0.261-0.609 0.524-0.859 0.756-0.917 0.852-1.084 0.917-1.495 0.578-0.051-0.042-0.059-0.063-0.059-0.063-0.010-0.117 0.281-0.461 0.437-0.646 0.342-0.404 0.729-0.863 0.675-1.402-0.030-0.294-0.184-0.553-0.458-0.769-1.412-1.115-3.209 0.182-3.285 0.238-0.211 0.155-0.256 0.452-0.101 0.663s0.452 0.256 0.663 0.101c0.013-0.009 1.284-0.929 2.135-0.257 0.072 0.057 0.1 0.1 0.102 0.12 0.014 0.139-0.28 0.486-0.455 0.694-0.346 0.409-0.703 0.831-0.657 1.343 0.024 0.271 0.159 0.51 0.4 0.71 1.103 0.912 1.938 0.136 2.745-0.615 0.249-0.232 0.507-0.471 0.806-0.71 0.239-0.192 0.448-0.278 0.543-0.224 0.233 0.13 0.485 0.926 0.316 2.289-0.032 0.26 0.153 0.497 0.413 0.529 0.020 0.002 0.039 0.004 0.059 0.004 0.236-0 0.441-0.176 0.47-0.416 0.202-1.634-0.095-2.843-0.795-3.234z"></path>
<path d="M15.165 10.996c-1.394 0.058-1.872 1.446-1.892 1.505-0.083 0.249 0.052 0.517 0.3 0.6 0.050 0.017 0.1 0.024 0.15 0.024 0.199 0 0.384-0.126 0.45-0.325 0.003-0.008 0.283-0.826 1.030-0.857 0.262-0.011 0.465-0.232 0.454-0.494s-0.232-0.466-0.493-0.454z"></path>
<path d="M28.878 10.852c-0.068-0.16-0.22-0.271-0.394-0.288-0.285-0.026-0.429 0.189-0.476 0.259-0.556 0.835-1.624 1.408-3.006 1.614-2.848 0.424-4.004 2.039-4.052 2.107-0.003 0.004-0.006 0.009-0.009 0.013-0.435 0.671-1.857 2.355-3.189 2.101-0.257-0.049-0.506 0.12-0.555 0.377s0.12 0.506 0.377 0.555c0.156 0.030 0.31 0.044 0.462 0.044 1.971-0 3.558-2.342 3.695-2.549 0.077-0.104 1.043-1.356 3.412-1.709 1.648-0.245 2.945-0.963 3.652-2.022 0.119-0.133 0.158-0.327 0.083-0.502z"></path>
<path d="M24.693 12.637c-0.217-0.146-0.512-0.089-0.658 0.128s-0.089 0.512 0.128 0.659c0.027 0.018 0.652 0.451 0.348 1.322-0.086 0.247 0.044 0.518 0.292 0.604 0.052 0.018 0.105 0.027 0.156 0.027 0.196 0 0.38-0.123 0.448-0.318 0.434-1.242-0.277-2.127-0.714-2.421z"></path>
<path d="M29.31 13.645c-0.057-0.256-0.31-0.417-0.566-0.36-0.188 0.042-4.62 1.047-6.237 2.742-0.181 0.19-0.174 0.49 0.016 0.671 0.092 0.088 0.21 0.131 0.327 0.131 0.125 0 0.25-0.049 0.343-0.147 1.418-1.487 5.714-2.461 5.757-2.471 0.256-0.057 0.417-0.311 0.36-0.566z"></path>
<path d="M10.14 20.383c-0.168-0.201-0.467-0.227-0.668-0.059-0.778 0.652-1.331 0.683-1.336 0.683l0.010-0v0.949c0.088 0 0.887-0.025 1.936-0.905 0.201-0.168 0.227-0.468 0.059-0.668z"></path>
<path d="M12.474 17.965c-0.244-0.095-0.519 0.026-0.614 0.27-0.295 0.756-1.105 1.201-1.117 1.207-0.231 0.123-0.318 0.409-0.196 0.64 0.085 0.161 0.25 0.253 0.42 0.253 0.075 0 0.151-0.018 0.222-0.055 0.046-0.024 1.13-0.608 1.556-1.7 0.095-0.244-0.026-0.519-0.27-0.614z"></path>
<path d="M5.569 30.039c-0.175-1.228-2.539-1.912-2.563-1.919-1.81-0.513-2.586 0.631-2.918 1.681-0.212 0.671-0.035 1.288 0.488 1.693 0.431 0.334 1.079 0.497 1.782 0.497 0.832 0 1.74-0.229 2.452-0.676 0.714-0.448 0.806-0.941 0.759-1.276zM4.306 30.512c-1.056 0.662-2.586 0.668-3.149 0.232-0.139-0.108-0.284-0.28-0.165-0.656 0.284-0.897 0.714-1.149 1.185-1.149 0.186 0 0.379 0.040 0.571 0.094 0.79 0.224 1.834 0.806 1.882 1.14 0.009 0.062-0.088 0.191-0.323 0.338z"></path>
<path d="M3.29 28.345c-0.128-0.229-0.417-0.31-0.646-0.182-0.024 0.013-0.588 0.334-1.008 0.918-0.582 0.81-0.623 1.759-0.115 2.671 0.087 0.156 0.248 0.244 0.415 0.244 0.078 0 0.157-0.019 0.23-0.060 0.229-0.127 0.311-0.416 0.184-0.645-0.766-1.376 0.6-2.21 0.759-2.301 0.228-0.128 0.308-0.417 0.18-0.645z"></path>
<path d="M31.706 0.888c-0.212-0.31-0.635-0.687-1.439-0.726-0.222-0.011-0.443-0.045-0.657-0.079-0.5-0.079-1.017-0.16-1.513 0.081-0.526 0.256-0.904 0.821-1.188 1.777-0.491 1.653-0.526 2.632-0.114 3.274 0.262 0.41 0.704 0.663 1.311 0.75 0.066 0.010 0.131 0.014 0.197 0.014 0.834 0 1.653-0.734 2.211-1.377 0.633-0.73 1.205-1.662 1.423-2.317 0.114-0.344 0.091-0.928-0.232-1.398zM31.037 1.987c-0.369 1.111-1.906 3.045-2.727 3.045-0.023 0-0.046-0.002-0.068-0.005-0.436-0.063-0.578-0.214-0.648-0.323-0.237-0.371-0.164-1.186 0.225-2.493 0.198-0.664 0.431-1.066 0.694-1.194 0.097-0.047 0.212-0.065 0.342-0.065 0.174 0 0.377 0.032 0.608 0.069 0.228 0.036 0.486 0.077 0.759 0.090 0.333 0.016 0.569 0.122 0.701 0.315 0.144 0.21 0.14 0.483 0.114 0.562z"></path>
<path d="M31.358 2.589c-1.341-1.841-3.816-1.33-3.921-1.307-0.256 0.055-0.419 0.308-0.363 0.564s0.308 0.419 0.564 0.363c0.019-0.004 1.972-0.409 2.953 0.938 0.093 0.127 0.237 0.195 0.384 0.195 0.097 0 0.195-0.030 0.279-0.091 0.212-0.154 0.258-0.451 0.104-0.663z"></path>
<path d="M24.325 3.153c-0.774-0.127-1.508 0.399-1.635 1.174s0.399 1.508 1.174 1.635c0.078 0.013 0.155 0.019 0.232 0.019 0.684 0 1.289-0.496 1.404-1.192v-0c0.127-0.774-0.399-1.508-1.174-1.635zM24.562 4.634c-0.043 0.258-0.287 0.434-0.545 0.391s-0.434-0.287-0.391-0.545c0.038-0.232 0.24-0.397 0.468-0.397 0.025 0 0.051 0.002 0.077 0.006 0.258 0.042 0.433 0.287 0.391 0.545z"></path>
<path d="M10.007 28.012c-0.774-0.127-1.508 0.399-1.635 1.174-0.062 0.375 0.027 0.752 0.248 1.061s0.55 0.513 0.925 0.575c0.078 0.013 0.156 0.019 0.234 0.019 0.295 0 0.582-0.092 0.827-0.267 0.309-0.222 0.513-0.55 0.575-0.925 0.127-0.774-0.399-1.508-1.174-1.635zM10.244 29.494c-0.042 0.258-0.286 0.434-0.545 0.391s-0.434-0.287-0.391-0.545c0.038-0.232 0.24-0.398 0.468-0.398 0.025 0 0.051 0.002 0.077 0.006 0.258 0.042 0.434 0.287 0.391 0.545z"></path>
</symbol>
<symbol id="paper" viewBox="0 0 32 32">
<path d="M31.799 10.908c-0.205-0.368-0.542-0.634-0.948-0.749l-3.561-1.010c-0.28-0.079-0.57 0.083-0.65 0.363s0.083 0.57 0.363 0.65l3.561 1.010c0.279 0.079 0.442 0.371 0.363 0.65l-4.305 15.172c-0.038 0.135-0.127 0.247-0.25 0.316s-0.265 0.085-0.395 0.048l-4.242-1.253h2.149c0.87 0 1.578-0.708 1.578-1.578v-19.373c0-0.87-0.708-1.578-1.578-1.578h-15.77c-0.87 0-1.578 0.708-1.578 1.578v19.374c0 0.87 0.708 1.578 1.578 1.578h2.325l-4.412 1.252c-0.135 0.038-0.277 0.022-0.4-0.047s-0.211-0.181-0.25-0.316l-4.305-15.172c-0.079-0.279 0.083-0.57 0.363-0.65l3.679-1.044c0.28-0.079 0.442-0.37 0.363-0.65s-0.37-0.442-0.65-0.363l-3.679 1.044c-0.837 0.238-1.325 1.112-1.088 1.949l4.305 15.172c0.115 0.406 0.381 0.742 0.749 0.948 0.238 0.133 0.501 0.201 0.767 0.201 0.145 0 0.29-0.020 0.433-0.061l7.98-2.264h3.728l7.663 2.264c0.143 0.041 0.288 0.061 0.433 0.061 0.266 0 0.528-0.068 0.767-0.201 0.368-0.205 0.634-0.542 0.749-0.948l4.305-15.172c0.115-0.406 0.065-0.832-0.14-1.2zM18.089 25.050h-9.974c-0.29 0-0.526-0.236-0.526-0.526v-19.374c0-0.29 0.236-0.526 0.526-0.526h15.771c0.29 0 0.526 0.236 0.526 0.526v19.374c0 0.29-0.236 0.526-0.526 0.526h-5.79c-0.002 0-0.004 0-0.006 0z"></path>
</symbol>
<symbol id="scissors" viewBox="0 0 32 32">
<path d="M12.921 25.807c-0.128-0.791-0.556-1.485-1.206-1.955s-1.444-0.657-2.235-0.53c-0.791 0.128-1.485 0.556-1.955 1.206s-0.657 1.443-0.53 2.235 0.556 1.485 1.206 1.955c0.517 0.373 1.125 0.569 1.75 0.569 0.161 0 0.323-0.013 0.484-0.039 0.791-0.128 1.485-0.556 1.955-1.206s0.657-1.443 0.53-2.235zM11.24 27.21c-0.247 0.342-0.613 0.568-1.029 0.635s-0.835-0.032-1.177-0.279c-0.342-0.247-0.568-0.613-0.635-1.029s0.032-0.835 0.279-1.177c0.247-0.342 0.613-0.568 1.029-0.635 0.085-0.014 0.17-0.020 0.255-0.020 0.329 0 0.649 0.103 0.922 0.299 0.342 0.247 0.568 0.613 0.635 1.029s-0.032 0.835-0.279 1.177z"></path>
<path d="M26.799 23.121c-1.085-1.629-2.917-2.579-4.858-2.547l-1.823-2.46 4.332-5.512c2.519-3.23 2.933-7.669 1.054-11.31l-0.468-0.907c-0.115-0.223-0.339-0.369-0.59-0.383s-0.49 0.104-0.63 0.313l-7.798 11.593-7.833-11.594c-0.14-0.208-0.38-0.326-0.63-0.311s-0.474 0.16-0.589 0.383l-0.468 0.907c-1.879 3.64-1.465 8.079 1.054 11.309l4.285 5.505-1.782 2.468c-1.937-0.032-3.768 0.92-4.852 2.547-1.631 2.447-1.106 5.799 1.194 7.63 1.027 0.818 2.264 1.249 3.549 1.249 0.262 0 0.527-0.018 0.792-0.054 1.563-0.215 2.932-1.037 3.856-2.316 1.091-1.511 1.369-3.481 0.759-5.231l0.647-0.896 0.651 0.897c-0.609 1.75-0.331 3.719 0.76 5.23 0.923 1.279 2.293 2.101 3.856 2.316 0.265 0.036 0.53 0.054 0.792 0.054 1.285 0 2.522-0.431 3.549-1.249 2.3-1.831 2.824-5.183 1.194-7.63zM8.671 11.728c-2.143-2.748-2.525-6.507-0.992-9.626l7.483 11.077-2.485 3.695-4.006-5.146zM13.973 23.88c-0.146 0.203-0.175 0.468-0.076 0.698 0.598 1.384 0.423 3.001-0.457 4.221-0.694 0.961-1.723 1.579-2.897 1.74s-2.332-0.158-3.263-0.899c-1.728-1.375-2.121-3.893-0.896-5.731 0.802-1.204 2.147-1.915 3.577-1.915 0.126 0 0.253 0.006 0.38 0.017 0.249 0.022 0.492-0.089 0.638-0.292l1.779-2.464 2.994 2.162-1.779 2.464zM16.607 20.281l-1.28-0.924 7.587-10.427c0.231-0.317 0.161-0.761-0.156-0.992s-0.761-0.161-0.992 0.156l-7.59 10.431-0.604-0.436 3.037-4.515c0-0 0-0 0-0l7.715-11.469c1.532 3.118 1.149 6.876-0.992 9.621l-4.665 5.936c-0 0-0 0-0 0l-2.059 2.619zM24.721 29.639c-0.93 0.741-2.089 1.060-3.263 0.899s-2.203-0.779-2.897-1.74c-0.88-1.219-1.056-2.837-0.457-4.22 0.1-0.23 0.070-0.496-0.077-0.699l-1.153-1.588 0.438-0.607 1.896-2.413 1.819 2.454c0.147 0.198 0.387 0.306 0.633 0.285 1.569-0.139 3.085 0.589 3.957 1.899 1.225 1.838 0.831 4.356-0.896 5.731z"></path>
<path d="M24.474 24.528c-0.469-0.65-1.164-1.078-1.955-1.206s-1.585 0.060-2.235 0.53c-0.65 0.469-1.078 1.163-1.206 1.955s0.060 1.585 0.53 2.235c0.469 0.65 1.163 1.078 1.955 1.206 0.162 0.026 0.324 0.039 0.484 0.039 0.625 0 1.233-0.195 1.75-0.569 0.65-0.469 1.078-1.163 1.206-1.955s-0.060-1.585-0.53-2.235zM23.601 26.536c-0.067 0.417-0.293 0.782-0.635 1.029s-0.76 0.346-1.177 0.279c-0.417-0.067-0.782-0.293-1.029-0.635s-0.346-0.76-0.279-1.177 0.293-0.782 0.635-1.029c0.272-0.197 0.592-0.299 0.922-0.299 0.085 0 0.17 0.007 0.255 0.020 0.417 0.067 0.782 0.293 1.029 0.635s0.346 0.76 0.279 1.177z"></path>
<path d="M24.229 6.667c-0.009-0.045-0.023-0.090-0.041-0.133s-0.040-0.084-0.065-0.122c-0.026-0.039-0.056-0.075-0.089-0.108s-0.069-0.063-0.108-0.089c-0.038-0.026-0.080-0.048-0.122-0.065s-0.087-0.031-0.133-0.040c-0.092-0.018-0.186-0.018-0.278 0-0.045 0.009-0.090 0.023-0.133 0.040s-0.084 0.040-0.123 0.065c-0.039 0.026-0.075 0.056-0.108 0.089s-0.063 0.069-0.088 0.108c-0.026 0.038-0.048 0.080-0.065 0.122s-0.031 0.088-0.041 0.133c-0.009 0.046-0.014 0.093-0.014 0.139s0.005 0.093 0.014 0.138c0.009 0.045 0.023 0.090 0.041 0.133s0.040 0.085 0.065 0.123c0.026 0.039 0.055 0.075 0.088 0.108s0.069 0.063 0.108 0.088c0.038 0.026 0.080 0.048 0.123 0.065s0.087 0.031 0.133 0.040 0.092 0.014 0.139 0.014c0.047 0 0.093-0.005 0.139-0.014s0.090-0.023 0.133-0.040c0.043-0.018 0.084-0.040 0.122-0.065s0.075-0.055 0.108-0.088c0.033-0.033 0.063-0.069 0.089-0.108s0.048-0.080 0.065-0.123c0.018-0.043 0.031-0.087 0.041-0.133s0.014-0.092 0.014-0.138-0.004-0.093-0.014-0.139z"></path>
</symbol>
<symbol id="logo" viewBox="0 0 75 32">
<path fill="none" stroke="#000" style="stroke: var(--color1, #000)" stroke-linejoin="round" stroke-linecap="round" stroke-miterlimit="4" stroke-width="0.9143" d="M8.734 9.943l-7.94 8 7.94 8"></path>
<path fill="none" stroke="#000" style="stroke: var(--color1, #000)" stroke-linejoin="round" stroke-linecap="round" stroke-miterlimit="4" stroke-width="0.9143" d="M24.613 9.943l7.94 8-7.94 8"></path>
<path fill="#000" style="fill: var(--color1, #000)" d="M19.48 4.034l-6.818 25.637c-0.093 0.348-0.448 0.555-0.794 0.462s-0.551-0.451-0.458-0.8l6.818-25.637c0.093-0.348 0.448-0.555 0.794-0.462s0.551 0.451 0.458 0.8z"></path>
<path fill="#d9d9d9" style="fill: var(--color2, #d9d9d9)" d="M18.228 3.696c0.093-0.348 0.448-0.555 0.794-0.462s0.551 0.451 0.458 0.8l-0.83 3.123-1.252-0.338 0.83-3.123z"></path>
<path fill="none" stroke="#000" style="stroke: var(--color1, #000)" stroke-linejoin="miter" stroke-linecap="round" stroke-miterlimit="4" stroke-width="0.6857" d="M20.401 5.618l2.504 0.676"></path>
<path fill="none" stroke="#000" style="stroke: var(--color1, #000)" stroke-linejoin="miter" stroke-linecap="round" stroke-miterlimit="4" stroke-width="0.6857" d="M14.141 3.928l2.504 0.676"></path>
<path fill="none" stroke="#000" style="stroke: var(--color1, #000)" stroke-linejoin="miter" stroke-linecap="round" stroke-miterlimit="4" stroke-width="0.6857" d="M15.598 0.969l1.3 2.247"></path>
<path fill="none" stroke="#000" style="stroke: var(--color1, #000)" stroke-linejoin="miter" stroke-linecap="round" stroke-miterlimit="4" stroke-width="0.6857" d="M13.963 7.117l2.241-1.291"></path>
<path fill="none" stroke="#000" style="stroke: var(--color1, #000)" stroke-linejoin="miter" stroke-linecap="round" stroke-miterlimit="4" stroke-width="0.6857" d="M20.068 6.869l1.3 2.247"></path>
<path fill="none" stroke="#000" style="stroke: var(--color1, #000)" stroke-linejoin="miter" stroke-linecap="round" stroke-miterlimit="4" stroke-width="0.6857" d="M20.762 4.26l2.241-1.291"></path>
<path fill="#000" style="fill: var(--color1, #000)" d="M43.682 12.058c-0.661 0-1.258-0.147-1.791-0.442-0.527-0.294-0.943-0.701-1.248-1.219-0.299-0.525-0.448-1.11-0.448-1.757s0.149-1.229 0.448-1.747c0.305-0.525 0.724-0.934 1.258-1.229s1.131-0.442 1.791-0.442c0.495 0 0.953 0.083 1.372 0.25s0.775 0.41 1.067 0.73l-0.448 0.451c-0.521-0.531-1.178-0.797-1.972-0.797-0.527 0-1.007 0.122-1.439 0.365s-0.772 0.576-1.019 0.998c-0.241 0.422-0.362 0.896-0.362 1.421s0.121 0.998 0.362 1.421c0.248 0.422 0.588 0.755 1.019 0.998s0.911 0.365 1.439 0.365c0.8 0 1.458-0.269 1.972-0.806l0.448 0.451c-0.292 0.32-0.651 0.566-1.076 0.739-0.419 0.166-0.877 0.25-1.372 0.25zM49.316 12.048c-0.483 0-0.918-0.109-1.305-0.326-0.388-0.224-0.693-0.531-0.915-0.922s-0.333-0.832-0.333-1.325c0-0.493 0.111-0.934 0.333-1.325s0.527-0.694 0.915-0.912c0.387-0.218 0.822-0.326 1.305-0.326s0.918 0.109 1.306 0.326c0.387 0.218 0.689 0.522 0.905 0.912 0.222 0.39 0.333 0.832 0.333 1.325s-0.111 0.934-0.333 1.325c-0.216 0.39-0.518 0.698-0.905 0.922-0.388 0.218-0.823 0.326-1.306 0.326zM49.316 11.443c0.356 0 0.673-0.080 0.953-0.24 0.286-0.166 0.508-0.4 0.667-0.701s0.238-0.643 0.238-1.027-0.079-0.726-0.238-1.027c-0.159-0.301-0.381-0.531-0.667-0.691-0.279-0.166-0.597-0.25-0.953-0.25s-0.677 0.083-0.962 0.25c-0.279 0.16-0.502 0.39-0.667 0.691-0.159 0.301-0.238 0.643-0.238 1.027s0.080 0.726 0.238 1.027c0.166 0.301 0.388 0.534 0.667 0.701 0.286 0.16 0.607 0.24 0.962 0.24zM57.814 4.877v7.123h-0.648v-0.998c-0.203 0.339-0.473 0.598-0.81 0.778-0.331 0.179-0.705 0.269-1.125 0.269-0.47 0-0.896-0.109-1.277-0.326s-0.679-0.522-0.896-0.912c-0.216-0.39-0.324-0.835-0.324-1.334s0.108-0.944 0.324-1.334c0.216-0.39 0.515-0.691 0.896-0.902 0.381-0.218 0.807-0.326 1.277-0.326 0.406 0 0.772 0.086 1.096 0.259 0.331 0.166 0.6 0.413 0.81 0.739v-3.034h0.676zM55.289 11.443c0.349 0 0.664-0.080 0.944-0.24 0.286-0.166 0.508-0.4 0.667-0.701 0.165-0.301 0.247-0.643 0.247-1.027s-0.082-0.726-0.247-1.027c-0.159-0.301-0.381-0.531-0.667-0.691-0.28-0.166-0.594-0.25-0.944-0.25-0.356 0-0.677 0.083-0.962 0.25-0.279 0.16-0.502 0.39-0.667 0.691-0.159 0.301-0.238 0.643-0.238 1.027s0.080 0.726 0.238 1.027c0.165 0.301 0.388 0.534 0.667 0.701 0.286 0.16 0.607 0.24 0.962 0.24zM59.698 6.95h0.676v5.050h-0.676v-5.050zM60.041 5.846c-0.14 0-0.257-0.048-0.352-0.144s-0.143-0.211-0.143-0.346c0-0.128 0.048-0.24 0.143-0.336s0.213-0.144 0.352-0.144 0.257 0.048 0.352 0.144c0.095 0.090 0.143 0.198 0.143 0.326 0 0.141-0.048 0.259-0.143 0.355s-0.213 0.144-0.352 0.144zM64.811 6.912c0.629 0 1.127 0.186 1.496 0.557 0.375 0.365 0.562 0.899 0.562 1.603v2.928h-0.676v-2.861c0-0.525-0.13-0.925-0.391-1.2s-0.632-0.413-1.115-0.413c-0.54 0-0.969 0.163-1.286 0.49-0.311 0.32-0.467 0.765-0.467 1.334v2.65h-0.677v-5.050h0.648v0.931c0.184-0.307 0.438-0.544 0.763-0.71 0.33-0.173 0.711-0.259 1.143-0.259zM73.364 6.95v4.435c0 0.858-0.21 1.491-0.629 1.901-0.413 0.416-1.039 0.624-1.877 0.624-0.464 0-0.905-0.070-1.324-0.211-0.413-0.134-0.749-0.323-1.010-0.566l0.343-0.518c0.241 0.218 0.534 0.387 0.877 0.509 0.349 0.122 0.715 0.182 1.096 0.182 0.635 0 1.102-0.15 1.4-0.451 0.299-0.294 0.448-0.755 0.448-1.382v-0.643c-0.21 0.32-0.486 0.563-0.829 0.73-0.337 0.166-0.712 0.25-1.125 0.25-0.47 0-0.899-0.102-1.286-0.307-0.381-0.211-0.683-0.502-0.905-0.874-0.216-0.378-0.324-0.803-0.324-1.277s0.108-0.896 0.324-1.267c0.222-0.371 0.524-0.659 0.905-0.864s0.81-0.307 1.286-0.307c0.426 0 0.81 0.086 1.153 0.259s0.619 0.422 0.829 0.749v-0.97h0.648zM70.8 11.203c0.362 0 0.689-0.077 0.981-0.23 0.292-0.16 0.517-0.381 0.677-0.662 0.165-0.282 0.248-0.602 0.248-0.96s-0.083-0.675-0.248-0.95c-0.159-0.282-0.384-0.499-0.677-0.653-0.286-0.16-0.613-0.24-0.981-0.24-0.362 0-0.689 0.077-0.981 0.23-0.286 0.154-0.511 0.371-0.676 0.653-0.159 0.282-0.238 0.602-0.238 0.96s0.079 0.678 0.238 0.96c0.165 0.282 0.39 0.502 0.676 0.662 0.293 0.154 0.619 0.23 0.981 0.23z"></path>
<path fill="#000" style="fill: var(--color1, #000)" d="M61.897 18.762c-0.133 0.197-0.282 0.433-0.447 0.708s-0.34 0.583-0.526 0.923c-0.158 0.284-0.315 0.588-0.47 0.909-0.152 0.319-0.298 0.636-0.438 0.952-0.139 0.312-0.268 0.614-0.386 0.905-0.118 0.288-0.22 0.542-0.307 0.764-0.087 0.219-0.155 0.395-0.205 0.53-0.049 0.131-0.074 0.198-0.074 0.202-0.031 0.078-0.087 0.117-0.168 0.117-0.040 0-0.076-0.012-0.107-0.037-0.031-0.028-0.051-0.063-0.060-0.103 0-0.003-0.016-0.069-0.047-0.197-0.028-0.131-0.067-0.305-0.116-0.52-0.050-0.219-0.107-0.469-0.172-0.75-0.062-0.284-0.128-0.58-0.2-0.886-0.068-0.309-0.138-0.622-0.209-0.938s-0.138-0.616-0.2-0.9c-0.208 0.591-0.417 1.114-0.628 1.57-0.208 0.453-0.422 0.848-0.642 1.186-0.22 0.334-0.448 0.616-0.684 0.844-0.233 0.228-0.478 0.412-0.735 0.553-0.255 0.138-0.523 0.236-0.805 0.295-0.279 0.059-0.575 0.089-0.889 0.089-0.161 0-0.333-0.019-0.516-0.056-0.183-0.034-0.364-0.089-0.544-0.164s-0.352-0.169-0.517-0.281c-0.164-0.113-0.31-0.245-0.437-0.398-0.127-0.156-0.228-0.331-0.303-0.525-0.074-0.197-0.112-0.416-0.112-0.656 0-0.253 0.053-0.484 0.158-0.694 0.106-0.212 0.248-0.394 0.428-0.544 0.18-0.153 0.388-0.272 0.624-0.356 0.239-0.084 0.49-0.127 0.754-0.127 0.192 0 0.364 0.017 0.516 0.052 0.155 0.031 0.292 0.072 0.41 0.122s0.218 0.105 0.302 0.164c0.084 0.059 0.154 0.114 0.209 0.164s0.096 0.094 0.121 0.131c0.025 0.034 0.039 0.052 0.042 0.052 0.018 0.034 0.028 0.067 0.028 0.098 0 0.044-0.017 0.084-0.051 0.122-0.031 0.037-0.073 0.056-0.126 0.056-0.062 0-0.112-0.027-0.149-0.080-0.003-0.003-0.028-0.031-0.075-0.084-0.046-0.056-0.123-0.117-0.228-0.183s-0.242-0.125-0.41-0.178c-0.164-0.053-0.366-0.080-0.605-0.080-0.217 0-0.423 0.034-0.618 0.103-0.192 0.066-0.362 0.159-0.507 0.281-0.143 0.122-0.257 0.267-0.344 0.436-0.084 0.166-0.125 0.348-0.125 0.548 0 0.197 0.032 0.377 0.097 0.539s0.152 0.308 0.261 0.436c0.109 0.128 0.234 0.239 0.377 0.333s0.291 0.172 0.446 0.234c0.155 0.059 0.31 0.105 0.465 0.136 0.158 0.028 0.307 0.042 0.447 0.042 0.236 0 0.465-0.017 0.688-0.052 0.227-0.038 0.448-0.106 0.666-0.206 0.22-0.1 0.436-0.238 0.646-0.412s0.42-0.403 0.628-0.684c0.208-0.281 0.412-0.62 0.614-1.017 0.205-0.397 0.41-0.866 0.614-1.406 0.062-0.162 0.123-0.337 0.181-0.525s0.119-0.377 0.181-0.567c-0.053-0.275-0.092-0.509-0.117-0.703-0.022-0.194-0.032-0.355-0.032-0.483 0-0.137 0.011-0.247 0.032-0.328s0.050-0.142 0.084-0.183c0.034-0.044 0.071-0.070 0.112-0.080 0.040-0.013 0.079-0.019 0.116-0.019 0.031 0 0.065 0.006 0.102 0.019 0.040 0.012 0.076 0.041 0.107 0.084 0.034 0.041 0.062 0.102 0.084 0.183s0.032 0.191 0.032 0.328c0 0.15-0.014 0.323-0.042 0.52s-0.070 0.414-0.126 0.652c0.040 0.191 0.087 0.403 0.139 0.637s0.107 0.478 0.163 0.731c0.056 0.25 0.113 0.506 0.172 0.769s0.116 0.519 0.172 0.769c0.056 0.25 0.109 0.489 0.158 0.717 0.053 0.228 0.101 0.434 0.144 0.619 0.084-0.213 0.186-0.469 0.307-0.769 0.121-0.303 0.256-0.623 0.405-0.961 0.149-0.341 0.305-0.686 0.47-1.036 0.167-0.353 0.338-0.686 0.512-0.998 0.245-0.444 0.47-0.823 0.675-1.139 0.205-0.319 0.382-0.581 0.53-0.788s0.265-0.358 0.349-0.455c0.087-0.1 0.133-0.155 0.14-0.164 0.034-0.034 0.076-0.052 0.125-0.052 0.053 0 0.095 0.019 0.126 0.056 0.034 0.034 0.051 0.075 0.051 0.122 0 0.022-0.005 0.044-0.014 0.066 0 0.003-0.019 0.050-0.056 0.141-0.034 0.087-0.079 0.209-0.135 0.366-0.053 0.153-0.112 0.334-0.176 0.544-0.065 0.206-0.129 0.43-0.191 0.67-0.062 0.237-0.117 0.488-0.167 0.75-0.047 0.259-0.080 0.519-0.102 0.778-0.009 0.119-0.017 0.244-0.023 0.375-0.006 0.128-0.009 0.258-0.009 0.389 0 0.206 0.009 0.414 0.028 0.623s0.050 0.411 0.093 0.605c0.043 0.194 0.102 0.377 0.176 0.548 0.075 0.169 0.166 0.317 0.275 0.445s0.237 0.231 0.386 0.309c0.152 0.078 0.327 0.12 0.526 0.127 0.050 0.003 0.089 0.025 0.117 0.066 0.031 0.038 0.046 0.078 0.046 0.122s-0.017 0.083-0.051 0.117c-0.034 0.034-0.075 0.052-0.121 0.052-0.050 0-0.099-0.005-0.149-0.014-0.223-0.031-0.42-0.095-0.591-0.192-0.17-0.1-0.318-0.222-0.442-0.366-0.124-0.147-0.228-0.312-0.312-0.497-0.080-0.187-0.146-0.387-0.195-0.6s-0.086-0.433-0.107-0.661c-0.019-0.231-0.028-0.464-0.028-0.698 0-0.278 0.014-0.556 0.042-0.834s0.065-0.548 0.112-0.811c0.047-0.266 0.101-0.522 0.163-0.769s0.125-0.477 0.191-0.689zM67.252 23.492c-0.013 0.025-0.039 0.078-0.079 0.159-0.037 0.078-0.087 0.169-0.149 0.272-0.059 0.103-0.129 0.211-0.209 0.323s-0.171 0.216-0.27 0.309c-0.1 0.094-0.207 0.172-0.321 0.234-0.115 0.059-0.235 0.089-0.362 0.089-0.18 0-0.332-0.058-0.456-0.173-0.121-0.116-0.209-0.261-0.265-0.436-0.105 0.178-0.231 0.32-0.377 0.427-0.146 0.103-0.292 0.155-0.438 0.155-0.115 0-0.219-0.020-0.312-0.061-0.093-0.044-0.172-0.103-0.237-0.178-0.065-0.078-0.116-0.169-0.153-0.272-0.034-0.103-0.051-0.216-0.051-0.337 0-0.244 0.040-0.458 0.121-0.642 0.084-0.188 0.189-0.344 0.316-0.469s0.267-0.219 0.419-0.281c0.155-0.063 0.304-0.094 0.447-0.094 0.096 0 0.185 0.014 0.265 0.042 0.081 0.025 0.149 0.053 0.205 0.084 0.059 0.031 0.104 0.061 0.135 0.089 0.031 0.025 0.048 0.039 0.051 0.042 0.034 0.041 0.051 0.083 0.051 0.127 0 0.047-0.017 0.089-0.051 0.127-0.034 0.034-0.075 0.052-0.121 0.052-0.050 0-0.092-0.017-0.126-0.052-0.006-0.006-0.020-0.017-0.042-0.033-0.022-0.019-0.051-0.037-0.088-0.056s-0.082-0.034-0.135-0.047c-0.050-0.016-0.107-0.023-0.172-0.023-0.096 0-0.198 0.022-0.307 0.066s-0.208 0.112-0.298 0.206c-0.090 0.091-0.166 0.206-0.228 0.347-0.059 0.137-0.088 0.302-0.088 0.492 0 0.059 0.006 0.12 0.019 0.183 0.012 0.059 0.034 0.114 0.065 0.164s0.073 0.091 0.126 0.122c0.053 0.031 0.118 0.047 0.195 0.047 0.056 0 0.12-0.019 0.191-0.056 0.075-0.037 0.144-0.095 0.209-0.173 0.068-0.078 0.128-0.177 0.181-0.295 0.056-0.119 0.094-0.259 0.116-0.422 0.006-0.044 0.026-0.080 0.060-0.108 0.034-0.031 0.075-0.047 0.121-0.047 0.043 0 0.080 0.017 0.112 0.052 0.034 0.034 0.053 0.073 0.056 0.117 0.003 0.059 0.010 0.144 0.019 0.253 0.009 0.106 0.029 0.213 0.060 0.319 0.034 0.106 0.084 0.198 0.149 0.277s0.155 0.117 0.27 0.117c0.075 0 0.147-0.020 0.219-0.061 0.075-0.041 0.146-0.094 0.214-0.159 0.071-0.069 0.138-0.145 0.2-0.23 0.065-0.088 0.124-0.175 0.177-0.263s0.099-0.172 0.139-0.253c0.040-0.081 0.075-0.151 0.102-0.211 0.016-0.034 0.037-0.061 0.065-0.080 0.031-0.019 0.064-0.028 0.098-0.028 0.053 0 0.095 0.020 0.126 0.061 0.034 0.037 0.051 0.078 0.051 0.122 0 0.022-0.005 0.044-0.014 0.066zM68.614 25.259c0.583-0.766 0.988-1.401 1.214-1.908 0.016-0.034 0.036-0.059 0.061-0.075 0.028-0.019 0.059-0.028 0.093-0.028 0.053 0 0.096 0.019 0.13 0.056 0.034 0.034 0.051 0.075 0.051 0.122 0 0.022-0.005 0.044-0.014 0.066-0.137 0.313-0.331 0.661-0.582 1.045s-0.569 0.819-0.954 1.303c0 0.197 0.002 0.394 0.005 0.591s0.005 0.412 0.005 0.647c0 0.234-0.006 0.466-0.019 0.694-0.009 0.231-0.028 0.45-0.056 0.656-0.028 0.209-0.067 0.401-0.117 0.577-0.046 0.178-0.108 0.331-0.186 0.459-0.075 0.131-0.166 0.233-0.274 0.305-0.106 0.075-0.231 0.113-0.377 0.113-0.208 0-0.368-0.080-0.48-0.239s-0.167-0.386-0.167-0.68c0-0.156 0.014-0.327 0.042-0.511 0.031-0.181 0.075-0.369 0.131-0.563s0.123-0.391 0.2-0.591c0.080-0.197 0.169-0.389 0.265-0.577s0.2-0.367 0.312-0.539c0.115-0.172 0.236-0.328 0.363-0.469 0.003-0.219 0.005-0.436 0.005-0.652 0.003-0.216 0.008-0.414 0.014-0.595-0.093 0.119-0.205 0.212-0.335 0.281-0.127 0.069-0.255 0.103-0.382 0.103-0.108 0-0.208-0.020-0.298-0.061-0.087-0.044-0.161-0.103-0.223-0.178-0.062-0.078-0.11-0.169-0.144-0.272s-0.051-0.216-0.051-0.337c0-0.244 0.040-0.458 0.121-0.642 0.084-0.188 0.189-0.344 0.316-0.469s0.266-0.219 0.419-0.281c0.155-0.063 0.304-0.094 0.447-0.094 0.096 0 0.184 0.012 0.265 0.038s0.149 0.053 0.204 0.084c0.059 0.031 0.104 0.061 0.135 0.089s0.048 0.044 0.051 0.047c0.034 0.037 0.051 0.080 0.051 0.127s-0.017 0.089-0.051 0.127c-0.034 0.034-0.075 0.052-0.121 0.052-0.043 0-0.085-0.017-0.126-0.052-0.012-0.009-0.029-0.022-0.051-0.038-0.018-0.019-0.045-0.038-0.079-0.056-0.031-0.019-0.070-0.034-0.116-0.047-0.043-0.012-0.096-0.019-0.158-0.019-0.093 0-0.196 0.022-0.307 0.066-0.112 0.041-0.215 0.106-0.312 0.197s-0.177 0.208-0.242 0.352c-0.065 0.141-0.098 0.311-0.098 0.511 0 0.15 0.033 0.272 0.098 0.366 0.065 0.091 0.166 0.136 0.303 0.136 0.065 0 0.133-0.019 0.204-0.056 0.075-0.037 0.146-0.095 0.214-0.173s0.128-0.177 0.177-0.295c0.053-0.119 0.090-0.259 0.112-0.422 0.006-0.044 0.026-0.080 0.061-0.108 0.034-0.031 0.075-0.047 0.121-0.047 0.053 0 0.093 0.019 0.121 0.056 0.031 0.038 0.047 0.080 0.047 0.127 0 0.003-0.002 0.052-0.005 0.145-0.003 0.091-0.006 0.213-0.010 0.366s-0.008 0.331-0.014 0.534c-0.003 0.2-0.006 0.413-0.010 0.637zM68.261 26.286c-0.146 0.203-0.278 0.423-0.395 0.661-0.118 0.241-0.219 0.483-0.303 0.727s-0.149 0.48-0.195 0.708c-0.043 0.231-0.065 0.437-0.065 0.619 0 0.116 0.010 0.208 0.028 0.277 0.022 0.069 0.046 0.122 0.074 0.159 0.031 0.038 0.064 0.062 0.098 0.075 0.037 0.012 0.071 0.019 0.102 0.019 0.096 0 0.18-0.039 0.251-0.117s0.132-0.183 0.181-0.314c0.050-0.128 0.090-0.277 0.121-0.445s0.054-0.344 0.070-0.525c0.016-0.178 0.026-0.356 0.032-0.534s0.009-0.342 0.009-0.492c0-0.134 0-0.269 0-0.403s-0.003-0.272-0.009-0.412zM70.592 21.12c0 0.119-0.042 0.22-0.125 0.305-0.081 0.081-0.18 0.122-0.298 0.122s-0.219-0.041-0.302-0.122c-0.081-0.084-0.121-0.186-0.121-0.305 0-0.059 0.011-0.114 0.032-0.164 0.022-0.053 0.051-0.098 0.089-0.136 0.040-0.041 0.085-0.072 0.135-0.094 0.053-0.022 0.108-0.033 0.167-0.033s0.113 0.011 0.163 0.033c0.053 0.022 0.097 0.053 0.135 0.094 0.040 0.038 0.071 0.083 0.093 0.136 0.022 0.050 0.032 0.105 0.032 0.164zM69.838 23.867c0-0.45 0.028-0.898 0.084-1.345 0.006-0.044 0.025-0.081 0.056-0.112 0.034-0.034 0.078-0.052 0.13-0.052 0.047 0 0.085 0.019 0.116 0.056 0.031 0.034 0.047 0.075 0.047 0.122 0 0.019-0.005 0.075-0.014 0.169-0.006 0.094-0.016 0.206-0.028 0.337-0.010 0.128-0.019 0.266-0.028 0.413-0.006 0.144-0.010 0.277-0.010 0.398 0 0.166 0.016 0.3 0.047 0.403 0.034 0.1 0.076 0.178 0.126 0.234 0.053 0.056 0.107 0.094 0.163 0.112 0.059 0.019 0.115 0.028 0.167 0.028 0.087 0 0.177-0.031 0.27-0.094s0.187-0.15 0.283-0.262c0.099-0.113 0.199-0.247 0.298-0.403 0.099-0.159 0.197-0.336 0.293-0.53 0.016-0.031 0.037-0.055 0.065-0.070 0.028-0.019 0.059-0.028 0.093-0.028 0.049 0 0.090 0.019 0.121 0.056 0.034 0.038 0.051 0.078 0.051 0.122 0 0.031-0.006 0.058-0.018 0.080-0.037 0.072-0.084 0.159-0.14 0.262s-0.119 0.209-0.191 0.319c-0.071 0.109-0.15 0.219-0.237 0.328-0.084 0.106-0.174 0.203-0.27 0.291-0.096 0.084-0.197 0.153-0.303 0.206s-0.212 0.080-0.321 0.080c-0.139 0-0.262-0.030-0.368-0.089s-0.195-0.139-0.27-0.239c-0.071-0.1-0.126-0.217-0.163-0.352-0.034-0.137-0.051-0.284-0.051-0.441zM70.331 21.12c0-0.044-0.017-0.081-0.051-0.113-0.031-0.034-0.069-0.052-0.112-0.052s-0.080 0.017-0.112 0.052c-0.031 0.031-0.047 0.069-0.047 0.113s0.016 0.081 0.047 0.112c0.031 0.031 0.068 0.047 0.112 0.047s0.081-0.016 0.112-0.047c0.034-0.031 0.051-0.069 0.051-0.112zM74.876 23.502c-0.019 0.034-0.051 0.097-0.098 0.187-0.043 0.091-0.104 0.194-0.181 0.309-0.075 0.113-0.165 0.23-0.27 0.352s-0.226 0.234-0.362 0.337c-0.137 0.1-0.29 0.183-0.461 0.248-0.167 0.066-0.35 0.098-0.549 0.098-0.176 0-0.333-0.033-0.47-0.098-0.136-0.063-0.253-0.151-0.349-0.267-0.096-0.119-0.169-0.258-0.219-0.417s-0.075-0.336-0.075-0.53c0-0.187 0.026-0.362 0.079-0.525 0.053-0.166 0.124-0.309 0.214-0.431 0.093-0.122 0.2-0.217 0.321-0.286 0.121-0.072 0.25-0.108 0.386-0.108 0.102 0 0.195 0.019 0.279 0.056 0.084 0.034 0.154 0.081 0.209 0.141 0.058 0.059 0.104 0.125 0.135 0.197 0.034 0.072 0.051 0.144 0.051 0.216 0 0.069-0.010 0.133-0.028 0.192-0.016 0.059-0.037 0.112-0.065 0.159-0.025 0.044-0.054 0.080-0.088 0.108-0.034 0.025-0.069 0.038-0.102 0.038-0.053 0-0.096-0.017-0.13-0.052-0.031-0.034-0.047-0.077-0.047-0.127 0-0.025 0.005-0.047 0.014-0.066 0.012-0.019 0.025-0.038 0.037-0.056 0.016-0.022 0.028-0.047 0.037-0.075 0.013-0.031 0.019-0.070 0.019-0.117 0-0.066-0.031-0.125-0.093-0.178-0.059-0.053-0.135-0.080-0.228-0.080-0.087 0-0.171 0.027-0.251 0.080-0.077 0.053-0.145 0.125-0.204 0.216-0.059 0.087-0.107 0.192-0.144 0.314-0.034 0.119-0.051 0.245-0.051 0.38 0 0.128 0.016 0.25 0.047 0.366s0.078 0.219 0.139 0.309c0.062 0.088 0.14 0.158 0.233 0.211 0.096 0.053 0.209 0.080 0.34 0.080 0.167 0 0.323-0.030 0.465-0.089 0.143-0.062 0.273-0.141 0.391-0.234s0.222-0.195 0.311-0.305c0.090-0.113 0.166-0.217 0.228-0.314 0.065-0.1 0.115-0.186 0.149-0.258 0.037-0.075 0.059-0.122 0.065-0.141 0.012-0.031 0.033-0.055 0.060-0.070 0.031-0.019 0.064-0.028 0.098-0.028 0.053 0 0.095 0.019 0.126 0.056 0.034 0.038 0.051 0.080 0.051 0.127 0 0.019-0.006 0.044-0.019 0.075z"></path>
</symbol>
<symbol id="minus" viewBox="0 0 64 32">
<path fill="#fff" style="fill: var(--color3, #fff)" d="M11.52 6.016h50.304v11.904h-50.304v-11.904z"></path>
</symbol>
<symbol id="plus" viewBox="0 0 37 32">
<path fill="#fff" style="fill: var(--color3, #fff)" d="M32.32 16.853h-11.904v11.648h-4.032v-11.648h-11.904v-3.776h11.904v-11.712h4.032v11.712h11.904v3.776z"></path>
</symbol>
<symbol id="mal" viewBox="0 0 32 32">
<path fill="#fff" style="fill: var(--color3, #fff)" d="M18.432 14.515l9.523 5.376-1.766 3.226-9.6-5.606v10.906h-3.533l0.077-10.906-9.6 5.606-1.843-3.226 9.6-5.376-9.6-5.376 1.843-3.302 9.6 5.683-0.077-10.906h3.533v10.906l9.6-5.683 1.766 3.302-9.523 5.376z"></path>
</symbol>
<symbol id="dilutu" viewBox="0 0 15 32">
<path fill="#fff" style="fill: var(--color3, #fff)" d="M11.471 2.206h1.92l-9.748 27.825h-1.92l9.748-27.825z"></path>
</symbol>
<symbol id="dorivnue" viewBox="0 0 56 32">
<path fill="#fff" style="fill: var(--color3, #fff)" d="M6.72 0.48h41.76v5.664h-41.76v-5.664zM6.72 22.656h41.76v5.664h-41.76v-5.664z"></path>
</symbol>
<symbol id="vnis" viewBox="0 0 50 32">
<path stroke-linejoin="round" stroke-linecap="round" stroke-miterlimit="4" stroke-width="3.4286" d="M45.714 4.571l-20.571 22.857-20.571-22.857"></path>
</symbol>
<symbol id="surch" viewBox="0 0 32 32">
<path fill="none" stroke="#fff" style="stroke: var(--color3, #fff)" stroke-linejoin="miter" stroke-linecap="butt" stroke-miterlimit="4" stroke-width="4" d="M24.087 13.043c0 6.099-4.944 11.043-11.043 11.043s-11.043-4.944-11.043-11.043c0-6.099 4.944-11.043 11.043-11.043s11.043 4.944 11.043 11.043z"></path>
<path fill="#fff" style="fill: var(--color3, #fff)" d="M28.586 31.414c0.781 0.781 2.047 0.781 2.828 0s0.781-2.047 0-2.828l-2.828 2.828zM22.936 20.108l-1.414-1.414-2.829 2.828 1.414 1.414 2.828-2.828zM31.414 28.586l-8.478-8.478-2.828 2.828 8.478 8.478 2.828-2.828z"></path>
</symbol>
<symbol id="menu" viewBox="0 0 32 32">
<path d="M6.4 11.734v-2.134h19.2v2.134h-19.2zM6.4 17.066h19.2v-2.133h-19.2v2.133zM6.4 22.4h19.2v-2.134h-19.2v2.134z"></path>
</symbol>
<symbol id="bye" viewBox="0 0 32 32">
<path d="M32 3.223l-3.223-3.223-12.777 12.777-12.777-12.777-3.223 3.223 12.777 12.777-12.777 12.777 3.223 3.223 12.777-12.777 12.777 12.777 3.223-3.223-12.777-12.777 12.777-12.777z"></path>
</symbol>
</defs>
</svg>
